P2
# Generated by pnmdump.exe
7 24
255
0 0 0 0 0 0 0
0 48 48 48 48 48 0
0 48 0 48 0 0 0
0 48 0 48 0 0 0
0 48 0 0 0 0 0
0 0 0 0 0 0 0
0 0 0 0 0 0 0
0 112 112 112 112 112 0
0 112 0 112 0 112 0
0 112 0 112 0 112 0
0 112 0 0 0 112 0
0 0 0 0 0 0 0
0 0 0 0 0 0 0
0 176 176 176 176 176 0
0 176 0 176 0 176 0
0 176 0 176 0 176 0
0 176 0 0 0 176 0
0 0 0 0 0 0 0
0 0 0 0 0 0 0
0 255 255 255 255 255 0
0 255 0 255 0 0 0
0 255 0 255 0 0 0
0 255 255 255 0 0 0
0 0 0 0 0 0 0
